<?xml version="1.0" encoding="UTF-8" standalone="no"?>
<!-- Created with Inkscape (http://www.inkscape.org/) -->

<svg
   xmlns:dc="http://purl.org/dc/elements/1.1/"
   xmlns:cc="http://creativecommons.org/ns#"
   xmlns:rdf="http://www.w3.org/1999/02/22-rdf-syntax-ns#"
   xmlns:svg="http://www.w3.org/2000/svg"
   xmlns="http://www.w3.org/2000/svg"
   xmlns:sodipodi="http://sodipodi.sourceforge.net/DTD/sodipodi-0.dtd"
   xmlns:inkscape="http://www.inkscape.org/namespaces/inkscape"
   width="93.444588mm"
   height="110.96655mm"
   viewBox="0 0 93.44459 110.96655"
   version="1.1"
   id="svg8"
   inkscape:version="0.92.4 (unknown)"
   sodipodi:docname="3gun.svg">
  <defs
     id="defs2" />
  <sodipodi:namedview
     id="base"
     pagecolor="#ffffff"
     bordercolor="#666666"
     borderopacity="1.0"
     inkscape:pageopacity="0.0"
     inkscape:pageshadow="2"
     inkscape:zoom="0.98994949"
     inkscape:cx="-79.513268"
     inkscape:cy="268.32447"
     inkscape:document-units="mm"
     inkscape:current-layer="layer1"
     showgrid="false"
     inkscape:window-width="1366"
     inkscape:window-height="716"
     inkscape:window-x="0"
     inkscape:window-y="0"
     inkscape:window-maximized="1" />
  <metadata
     id="metadata5">
    <rdf:RDF>
      <cc:Work
         rdf:about="">
        <dc:format>image/svg+xml</dc:format>
        <dc:type
           rdf:resource="http://purl.org/dc/dcmitype/StillImage" />
        <dc:title />
      </cc:Work>
    </rdf:RDF>
  </metadata>
  <g
     inkscape:label="Layer 1"
     inkscape:groupmode="layer"
     id="layer1"
     transform="translate(-108.10118,-113.37534)">
    <circle
       r="17.672924"
       cy="131.04826"
       cx="179.07855"
       id="circle967"
       style="opacity:1;fill:#ff2e2e;fill-opacity:1;stroke:none;stroke-width:1.09244645;stroke-miterlimit:4;stroke-dasharray:none;stroke-dashoffset:0;stroke-opacity:1;paint-order:markers fill stroke" />
    <rect
       style="opacity:1;fill:#2e2e2e;fill-opacity:1;stroke:none;stroke-width:1.25;stroke-miterlimit:4;stroke-dasharray:none;stroke-dashoffset:0;stroke-opacity:1;paint-order:markers fill stroke"
       id="rect815"
       width="30.049107"
       height="28.348215"
       x="-24.846699"
       y="108.84845" />
    <rect
       y="137.19667"
       x="-24.846699"
       height="28.348215"
       width="30.049107"
       id="rect836"
       style="opacity:1;fill:#5c2e2e;fill-opacity:1;stroke:none;stroke-width:1.25;stroke-miterlimit:4;stroke-dasharray:none;stroke-dashoffset:0;stroke-opacity:1;paint-order:markers fill stroke" />
    <rect
       style="opacity:1;fill:#ff2e2e;fill-opacity:1;stroke:none;stroke-width:1.25;stroke-miterlimit:4;stroke-dasharray:none;stroke-dashoffset:0;stroke-opacity:1;paint-order:markers fill stroke"
       id="rect838"
       width="30.049107"
       height="28.348215"
       x="108.10118"
       y="118.97322" />
    <circle
       style="opacity:1;fill:#2e2e2e;fill-opacity:1;stroke:none;stroke-width:0.61814696;stroke-miterlimit:4;stroke-dasharray:none;stroke-dashoffset:0;stroke-opacity:1;paint-order:markers fill stroke"
       id="path840"
       cx="-47.069157"
       cy="187.20039"
       r="10" />
    <text
       xml:space="preserve"
       style="font-style:normal;font-variant:normal;font-weight:normal;font-stretch:normal;font-size:9.8777771px;line-height:1.25;font-family:'Liberation Serif';-inkscape-font-specification:'Liberation Serif';letter-spacing:0px;word-spacing:0px;fill:#000000;fill-opacity:1;stroke:none;stroke-width:0.26458332"
       x="115.60774"
       y="221.86993"
       id="text844"><tspan
         sodipodi:role="line"
         id="tspan842"
         x="115.60774"
         y="221.86993"
         style="font-style:normal;font-variant:normal;font-weight:normal;font-stretch:normal;font-family:'Cutive Mono';-inkscape-font-specification:'Cutive Mono';stroke-width:0.26458332">3gun</tspan></text>
    <text
       id="text848"
       y="211.3811"
       x="114.4738"
       style="font-style:normal;font-variant:normal;font-weight:normal;font-stretch:normal;font-size:9.8777771px;line-height:1.25;font-family:'Liberation Serif';-inkscape-font-specification:'Liberation Serif';letter-spacing:0px;word-spacing:0px;fill:#000000;fill-opacity:1;stroke:none;stroke-width:0.26458332"
       xml:space="preserve"><tspan
         style="font-style:normal;font-variant:normal;font-weight:normal;font-stretch:normal;font-family:'Scope One';-inkscape-font-specification:'Scope One';stroke-width:0.26458332"
         y="211.3811"
         x="114.4738"
         id="tspan846"
         sodipodi:role="line">3gun</tspan></text>
    <text
       xml:space="preserve"
       style="font-style:normal;font-variant:normal;font-weight:normal;font-stretch:normal;font-size:9.8777771px;line-height:1.25;font-family:'Liberation Serif';-inkscape-font-specification:'Liberation Serif';letter-spacing:0px;word-spacing:0px;fill:#000000;fill-opacity:1;stroke:none;stroke-width:0.26458332"
       x="114.85179"
       y="200.89226"
       id="text852"><tspan
         sodipodi:role="line"
         id="tspan850"
         x="114.85179"
         y="200.89226"
         style="font-style:normal;font-variant:normal;font-weight:normal;font-stretch:normal;font-family:'Microscan A';-inkscape-font-specification:'Microscan A';stroke-width:0.26458332">3gun</tspan></text>
    <circle
       r="10"
       cy="219.70633"
       cx="-46.313202"
       id="circle854"
       style="opacity:1;fill:#ff2e2e;fill-opacity:1;stroke:none;stroke-width:0.61814702;stroke-miterlimit:4;stroke-dasharray:none;stroke-dashoffset:0;stroke-opacity:1;paint-order:markers fill stroke" />
    <circle
       style="opacity:1;fill:#ff2e2e;fill-opacity:1;stroke:none;stroke-width:0.61814702;stroke-miterlimit:4;stroke-dasharray:none;stroke-dashoffset:0;stroke-opacity:1;paint-order:markers fill stroke"
       id="circle856"
       cx="4.6460853"
       cy="185.90617"
       r="10" />
    <circle
       style="opacity:1;fill:#5c2e2e;fill-opacity:1;stroke:none;stroke-width:0.61814702;stroke-miterlimit:4;stroke-dasharray:none;stroke-dashoffset:0;stroke-opacity:1;paint-order:markers fill stroke"
       id="circle858"
       cx="-22.793484"
       cy="186.03036"
       r="10" />
    <path
       inkscape:connector-curvature="0"
       id="path929"
       style="font-style:normal;font-variant:normal;font-weight:normal;font-stretch:normal;font-size:medium;line-height:1.25;font-family:'Microscan A';-inkscape-font-specification:'Microscan A';letter-spacing:0px;word-spacing:0px;fill:#2e2e2e;fill-opacity:1;stroke:none;stroke-width:1.36400342"
       d="m 187.9132,142.07306 q 0,0.76386 -1.06936,1.83322 -1.01848,1.01843 -1.83322,1.01843 H 171.6179 q -0.56012,0 -1.01843,-0.76381 -0.35623,-0.61111 -0.35623,-0.96754 0,-0.40727 0.40727,-1.06936 0.40727,-0.71293 0.81479,-0.71293 h 12.93436 v -6.51814 q 0,-0.45831 -0.4583,-1.22211 -0.40727,-0.8148 -1.01843,-0.8148 h -7.84212 q -0.56012,0 -0.96755,-0.76386 -0.35623,-0.56012 -0.35623,-0.96749 0,-0.40727 0.35623,-1.06941 0.40727,-0.71293 0.86573,-0.71293 h 7.79119 q 0.66199,0 1.1203,-0.71287 0.50934,-0.76386 0.50934,-1.32403 v -6.61996 h -12.93436 q -0.50935,0 -0.86568,-0.76381 -0.35623,-0.61111 -0.35623,-0.91661 0,-0.61111 0.50934,-1.22216 0.50934,-0.61106 1.1203,-0.61106 h 12.88348 q 0.86567,0 1.98597,0.91661 1.17123,0.86568 1.17123,1.93504 v 8.7078 q 0,0.30571 -0.50934,1.22216 -0.50935,0.86568 -0.86568,1.17123 1.37492,1.1203 1.37492,2.34241 z" />
    <circle
       style="opacity:1;fill:#2e2e2e;fill-opacity:1;stroke:none;stroke-width:0.54622322;stroke-miterlimit:4;stroke-dasharray:none;stroke-dashoffset:0;stroke-opacity:1;paint-order:markers fill stroke"
       id="circle969"
       cx="192.7093"
       cy="192.52025"
       r="8.836462"
       inkscape:export-filename="/home/iason/3.png"
       inkscape:export-xdpi="367.93048"
       inkscape:export-ydpi="367.93048" />
    <path
       d="m 197.12663,198.03265 q 0,0.38193 -0.53468,0.91661 -0.50924,0.50922 -0.91661,0.50922 h -6.69636 q -0.28006,0 -0.50922,-0.38191 -0.17811,-0.30555 -0.17811,-0.48377 0,-0.20363 0.20363,-0.53468 0.20364,-0.35646 0.4074,-0.35646 h 6.46718 v -3.25907 q 0,-0.22916 -0.22915,-0.61106 -0.20364,-0.4074 -0.50922,-0.4074 h -3.92106 q -0.28006,0 -0.48377,-0.38193 -0.17812,-0.28006 -0.17812,-0.48374 0,-0.20364 0.17812,-0.53471 0.20363,-0.35646 0.43286,-0.35646 h 3.8956 q 0.33099,0 0.56015,-0.35644 0.25467,-0.38193 0.25467,-0.66201 v -3.30998 h -6.46718 q -0.25468,0 -0.43284,-0.38191 -0.17812,-0.30555 -0.17812,-0.4583 0,-0.30556 0.25467,-0.61108 0.25467,-0.30553 0.56015,-0.30553 h 6.44174 q 0.43284,0 0.99299,0.4583 0.58561,0.43284 0.58561,0.96752 v 4.3539 q 0,0.15286 -0.25467,0.61108 -0.25467,0.43284 -0.43284,0.58562 0.68746,0.56015 0.68746,1.1712 z"
       style="font-style:normal;font-variant:normal;font-weight:normal;font-stretch:normal;font-size:medium;line-height:1.25;font-family:'Microscan A';-inkscape-font-specification:'Microscan A';letter-spacing:0px;word-spacing:0px;fill:#ff2e2e;fill-opacity:1;stroke:none;stroke-width:0.68200171"
       id="path971"
       inkscape:connector-curvature="0" />
    <g
       id="g979"
       transform="matrix(0.5,0,0,0.5,83.39208,105.61456)"
       inkscape:export-filename="/home/iason/3r.png"
       inkscape:export-xdpi="367.93048"
       inkscape:export-ydpi="367.93048">
      <circle
         r="17.672924"
         cy="131.04826"
         cx="179.07855"
         id="circle973"
         style="opacity:1;fill:#ff2e2e;fill-opacity:1;stroke:none;stroke-width:1.09244645;stroke-miterlimit:4;stroke-dasharray:none;stroke-dashoffset:0;stroke-opacity:1;paint-order:markers fill stroke" />
      <path
         inkscape:connector-curvature="0"
         id="path975"
         style="font-style:normal;font-variant:normal;font-weight:normal;font-stretch:normal;font-size:medium;line-height:1.25;font-family:'Microscan A';-inkscape-font-specification:'Microscan A';letter-spacing:0px;word-spacing:0px;fill:#2e2e2e;fill-opacity:1;stroke:none;stroke-width:1.36400342"
         d="m 187.9132,142.07306 q 0,0.76386 -1.06936,1.83322 -1.01848,1.01843 -1.83322,1.01843 H 171.6179 q -0.56012,0 -1.01843,-0.76381 -0.35623,-0.61111 -0.35623,-0.96754 0,-0.40727 0.40727,-1.06936 0.40727,-0.71293 0.81479,-0.71293 h 12.93436 v -6.51814 q 0,-0.45831 -0.4583,-1.22211 -0.40727,-0.8148 -1.01843,-0.8148 h -7.84212 q -0.56012,0 -0.96755,-0.76386 -0.35623,-0.56012 -0.35623,-0.96749 0,-0.40727 0.35623,-1.06941 0.40727,-0.71293 0.86573,-0.71293 h 7.79119 q 0.66199,0 1.1203,-0.71287 0.50934,-0.76386 0.50934,-1.32403 v -6.61996 h -12.93436 q -0.50935,0 -0.86568,-0.76381 -0.35623,-0.61111 -0.35623,-0.91661 0,-0.61111 0.50934,-1.22216 0.50934,-0.61106 1.1203,-0.61106 h 12.88348 q 0.86567,0 1.98597,0.91661 1.17123,0.86568 1.17123,1.93504 v 8.7078 q 0,0.30571 -0.50934,1.22216 -0.50935,0.86568 -0.86568,1.17123 1.37492,1.1203 1.37492,2.34241 z" />
    </g>
    <g
       inkscape:export-ydpi="367.93048"
       inkscape:export-xdpi="367.93048"
       inkscape:export-filename="/home/iason/3r.png"
       transform="matrix(0.5,0,0,0.5,98.626443,149.9813)"
       id="g985">
      <circle
         style="opacity:1;fill:#5c2e2e;fill-opacity:1;stroke:none;stroke-width:1.09244645;stroke-miterlimit:4;stroke-dasharray:none;stroke-dashoffset:0;stroke-opacity:1;paint-order:markers fill stroke"
         id="circle981"
         cx="179.07855"
         cy="131.04826"
         r="17.672924" />
      <path
         d="m 187.9132,142.07306 q 0,0.76386 -1.06936,1.83322 -1.01848,1.01843 -1.83322,1.01843 H 171.6179 q -0.56012,0 -1.01843,-0.76381 -0.35623,-0.61111 -0.35623,-0.96754 0,-0.40727 0.40727,-1.06936 0.40727,-0.71293 0.81479,-0.71293 h 12.93436 v -6.51814 q 0,-0.45831 -0.4583,-1.22211 -0.40727,-0.8148 -1.01843,-0.8148 h -7.84212 q -0.56012,0 -0.96755,-0.76386 -0.35623,-0.56012 -0.35623,-0.96749 0,-0.40727 0.35623,-1.06941 0.40727,-0.71293 0.86573,-0.71293 h 7.79119 q 0.66199,0 1.1203,-0.71287 0.50934,-0.76386 0.50934,-1.32403 v -6.61996 h -12.93436 q -0.50935,0 -0.86568,-0.76381 -0.35623,-0.61111 -0.35623,-0.91661 0,-0.61111 0.50934,-1.22216 0.50934,-0.61106 1.1203,-0.61106 h 12.88348 q 0.86567,0 1.98597,0.91661 1.17123,0.86568 1.17123,1.93504 v 8.7078 q 0,0.30571 -0.50934,1.22216 -0.50935,0.86568 -0.86568,1.17123 1.37492,1.1203 1.37492,2.34241 z"
         style="font-style:normal;font-variant:normal;font-weight:normal;font-stretch:normal;font-size:medium;line-height:1.25;font-family:'Microscan A';-inkscape-font-specification:'Microscan A';letter-spacing:0px;word-spacing:0px;fill:#ff2e2e;fill-opacity:1;stroke:none;stroke-width:1.36400342"
         id="path983"
         inkscape:connector-curvature="0" />
    </g>
  </g>
</svg>
